<?xml version="1.0" encoding="utf-8"?>
<!-- Generator: Adobe Illustrator 18.1.1, SVG Export Plug-In . SVG Version: 6.00 Build 0)  -->
<svg version="1.1" id="layer_1" xmlns="http://www.w3.org/2000/svg" xmlns:xlink="http://www.w3.org/1999/xlink" x="0px" y="0px"
	 viewBox="0 0 20 20" enable-background="new 0 0 20 20" xml:space="preserve">
<g>
	<path d="M10,0.8c-3.6,0-6.5,2.9-6.5,6.5c0,1.2,0.3,2.4,1,3.4L9.6,19c0.1,0.2,0.3,0.3,0.5,0.3h0c0.2,0,0.4-0.1,0.5-0.3l5-8.4
		c0.6-1,0.9-2.2,0.9-3.3C16.5,3.7,13.6,0.8,10,0.8L10,0.8z M14.7,10l-4.6,7.6l-4.7-7.6C4.9,9.2,4.6,8.3,4.6,7.3c0-3,2.4-5.4,5.4-5.4
		s5.4,2.4,5.4,5.4C15.4,8.2,15.2,9.2,14.7,10L14.7,10z M14.7,10"/>
	<path d="M10,4C8.2,4,6.8,5.5,6.8,7.3c0,1.8,1.4,3.3,3.3,3.3c1.8,0,3.2-1.5,3.2-3.3C13.3,5.5,11.8,4,10,4L10,4z M10,9.4
		c-1.2,0-2.2-1-2.2-2.2c0-1.2,1-2.2,2.2-2.2c1.2,0,2.2,1,2.2,2.2C12.2,8.4,11.2,9.4,10,9.4L10,9.4z M10,9.4"/>
</g>
</svg>
