<?xml version="1.0" encoding="utf-8"?>
<!-- Generator: Adobe Illustrator 18.1.1, SVG Export Plug-In . SVG Version: 6.00 Build 0)  -->
<svg version="1.1" id="Capa_1" xmlns="http://www.w3.org/2000/svg" xmlns:xlink="http://www.w3.org/1999/xlink" x="0px" y="0px"
	 viewBox="240 0 800 800" enable-background="new 240 0 800 800" xml:space="preserve">
<g>
	<g>
		<g>
			<path fill="#B50029" d="M983.8,608.8L872.6,497.6c-22.1-22.1-58.8-21.4-81.8,1.5l-56.1,56.1c-3.6-1.9-7.2-4-11-6.1
				c-35.4-19.6-83.8-46.5-134.7-97.4c-51.1-51.1-78-99.6-97.6-135c-2.1-3.7-4.1-7.4-6-10.8l37.6-37.6l18.5-18.5
				c23-23,23.6-59.6,1.5-81.8L431.8,56.9c-22.1-22.1-58.8-21.4-81.8,1.5L318.7,90l0.8,0.8c-10.5,13.4-19.3,28.9-25.8,45.6
				c-6,15.9-9.8,31-11.5,46.2c-14.7,121.8,40.9,233,191.9,383.9c208.6,208.6,376.8,192.9,384.1,192.1c15.8-1.9,30.9-5.7,46.3-11.7
				c16.5-6.5,32-15.2,45.4-25.7l0.7,0.6l31.7-31.4C1005.3,667.6,1006,631,983.8,608.8z"/>
		</g>
	</g>
</g>
</svg>
